<?xml version="1.0" encoding="UTF-8" standalone="no"?>
<!-- Created with Inkscape (http://www.inkscape.org/) -->

<svg
   version="1.1"
   id="svg829"
   xml:space="preserve"
   width="1600"
   height="1600"
   viewBox="0 0 1600 1600"
   sodipodi:docname="Headsink.svg"
   inkscape:version="1.1 (c68e22c387, 2021-05-23)"
   xmlns:inkscape="http://www.inkscape.org/namespaces/inkscape"
   xmlns:sodipodi="http://sodipodi.sourceforge.net/DTD/sodipodi-0.dtd"
   xmlns="http://www.w3.org/2000/svg"
   xmlns:svg="http://www.w3.org/2000/svg"><defs
     id="defs833"><clipPath
       clipPathUnits="userSpaceOnUse"
       id="clipPath843"><path
         d="M 0,1200 H 1200 V 0 H 0 Z"
         id="path841" /></clipPath></defs><sodipodi:namedview
     id="namedview831"
     pagecolor="#ffffff"
     bordercolor="#666666"
     borderopacity="1.0"
     inkscape:pageshadow="2"
     inkscape:pageopacity="0.0"
     inkscape:pagecheckerboard="0"
     showgrid="false"
     inkscape:zoom="0.1678125"
     inkscape:cx="256.23836"
     inkscape:cy="899.81378"
     inkscape:window-width="1366"
     inkscape:window-height="715"
     inkscape:window-x="-8"
     inkscape:window-y="-8"
     inkscape:window-maximized="1"
     inkscape:current-layer="g835" /><g
     id="g835"
     inkscape:groupmode="layer"
     inkscape:label="Headsink"
     transform="matrix(1.3333333,0,0,-1.3333333,0,1600)"><g
       id="g837"
       transform="matrix(2.5231803,0,0,2.5231803,-924.16628,-928.47083)"><g
         id="g839"
         clip-path="url(#clipPath843)"><g
           id="g845"
           transform="translate(535.4969,431.9575)"><path
             d="m 0,0 13.811,101.909 c 10e-4,0.005 0,0.01 -0.004,0.014 -5.149,5.727 -19.674,25.342 -23.533,32.103 -0.004,0.006 -0.01,0.009 -0.017,0.009 h -52.339 c -44.478,0 -63.734,22.843 -63.734,67.321 v 123.476 c 0,44.479 19.256,69.045 63.734,69.045 H 26.83 c 12.086,0 21.884,-9.798 21.884,-21.885 v -1.032 c 0,-0.01 0.009,-0.019 0.02,-0.019 1.878,0 3.4,-1.522 3.4,-3.4 v -27.745 c 0,-6.939 -5.625,-12.565 -12.564,-12.565 H 10.454 c -6.534,0 -11.83,5.297 -11.83,11.83 v 29.95 c 0,0.01 -0.009,0.019 -0.019,0.019 h -60.687 c -18.744,0 -33.993,-25.454 -33.993,-44.198 V 201.376 c 0,-18.785 15.228,-34.013 34.012,-34.013 h 47.736 c 0.011,0 0.02,0.01 0.019,0.021 -0.623,6.825 -0.633,13.651 -0.027,20.366 0.001,0.005 -10e-4,0.01 -0.004,0.014 -18.643,21.378 -28.888,48.686 -28.888,77.098 v 1.899 c 0,0.009 -0.006,0.016 -0.015,0.018 -6.321,1.426 -11.057,7.087 -11.057,13.833 v 10.393 c 0,7.841 6.357,14.198 14.198,14.198 h 246.913 c 7.841,0 14.198,-6.357 14.198,-14.198 v -10.393 c 0,-4.544 -2.242,-8.808 -5.872,-11.448 -0.005,-0.003 -0.008,-0.009 -0.008,-0.015 v -4.287 c 0,-26.572 -9.098,-52.517 -25.65,-73.231 -0.003,-0.003 -0.004,-0.008 -0.004,-0.013 0.263,-4.758 1.27,-7.776 3.444,-10.493 1.203,-1.503 3.092,-3.713 5.357,-6.363 11.968,-14.005 23.849,-28.372 26.214,-36.646 3.251,-11.383 -6.797,-16.821 -14.872,-21.19 -0.361,-0.195 -0.723,-0.391 -1.082,-0.586 3.461,-1.414 7.076,-4.14 6.79,-9.866 -0.356,-7.112 -4.013,-12.094 -10.893,-14.881 -0.012,-0.005 -0.016,-0.02 -0.007,-0.03 2.704,-2.994 5.01,-6.991 3.927,-11.318 -1.545,-6.181 -5.13,-9.839 -11.371,-11.409 -0.012,-0.003 -0.018,-0.017 -0.012,-0.028 11.823,-22.291 8.922,-26.163 7.783,-27.682 -4.316,-5.754 -15.224,-15.493 -28.731,-15.493 -1.261,0 -2.515,0.081 -3.765,0.248 -4.7,0.627 -11.892,1.465 -19.904,1.465 -23.848,0 -39.919,-7.089 -47.767,-21.07 -15.194,-27.065 -22.007,-36.921 -22.208,-37.211 -0.005,-0.007 -0.01,-0.005 -0.018,-0.001 L 0.012,-0.021 C 0.004,-0.017 -0.001,-0.009 0,0"
             style="fill:#1a1820;fill-opacity:1;fill-rule:nonzero;stroke:none"
             id="path847" /></g><g
           id="g849"
           transform="translate(724.9684,695.5355)"><path
             d="m 0,0 h 9.354 c 0,0 -6.803,-51.874 -22.96,-63.213 0,0 22.11,37.134 13.606,63.213"
             style="fill:#ffffff;fill-opacity:1;fill-rule:nonzero;stroke:none"
             id="path851" /></g><g
           id="g853"
           transform="translate(566.2598,821.1132)"><path
             d="m 0,0 c 0,0 12.189,-7.654 12.189,-20.126 0,0 5.669,17.291 -12.189,20.126"
             style="fill:#ffffff;fill-opacity:1;fill-rule:nonzero;stroke:none"
             id="path855" /></g><g
           id="g857"
           transform="translate(611.0472,426.5276)"><path
             d="M 0,0 C -74.009,0 -140.669,15.711 -187.403,40.819 -140.669,-9.397 -74.009,-40.819 0,-40.819 c 74.009,0 140.669,31.422 187.403,81.638 C 140.669,15.711 74.009,0 0,0"
             style="fill:#1a1820;fill-opacity:1;fill-rule:nonzero;stroke:none"
             id="path859" /></g></g></g></g></svg>
